<svg width="100" height="100" viewBox="0 0 100 100" fill="none" xmlns="http://www.w3.org/2000/svg">
<path d="M55.4395 31.5863C70.0747 31.5863 78.375 41.0303 79.5802 52.4303H79.9483C89.3647 52.4303 97 59.8523 97 69.0083C97 78.1643 89.3647 85.5863 79.9483 85.5863H30.9307C21.5143 85.5863 13.879 78.1643 13.879 69.0083C13.879 59.8523 21.5143 52.4303 30.9307 52.4303H31.2988C32.516 40.9523 40.8043 31.5863 55.4395 31.5863ZM39.9553 13.5863C48.5999 13.5863 56.1401 18.5543 59.8627 25.8563C58.3952 25.6745 56.918 25.5843 55.4395 25.5863C41.2496 25.5863 30.907 33.4283 27.214 45.3023L26.8459 46.5863L26.5728 47.7083L25.5932 47.8883C22.0077 48.6263 18.6588 50.2497 15.8451 52.6137C13.0314 54.9776 10.8405 58.0086 9.4677 61.4363C6.63927 59.6948 4.43416 57.0871 3.17292 53.9922C1.91168 50.8974 1.66005 47.4766 2.45461 44.2273C3.24917 40.978 5.0485 38.0694 7.59105 35.9245C10.1336 33.7795 13.2868 32.5099 16.5924 32.3003L17.9104 32.2703C18.8259 27.0343 21.5374 22.2915 25.5688 18.8748C29.6002 15.458 34.6938 13.5856 39.9553 13.5863V13.5863Z" fill="#E4F1F9"/>
</svg>
