<svg width="100" height="100" viewBox="0 0 100 100" fill="none" xmlns="http://www.w3.org/2000/svg">
<path d="M55.4395 32.5863C70.0747 32.5863 78.375 42.0303 79.5802 53.4303H79.9483C89.3647 53.4303 97 60.8523 97 70.0083C97 79.1643 89.3647 86.5863 79.9483 86.5863H30.9307C21.5143 86.5863 13.879 79.1643 13.879 70.0083C13.879 60.8523 21.5143 53.4303 30.9307 53.4303H31.2988C32.516 41.9523 40.8043 32.5863 55.4395 32.5863ZM39.9553 14.5863C48.5999 14.5863 56.1401 19.5543 59.8627 26.8563C58.3952 26.6745 56.918 26.5843 55.4395 26.5863C41.2496 26.5863 30.907 34.4283 27.214 46.3023L26.8459 47.5863L26.5728 48.7083L25.5932 48.8883C22.0077 49.6263 18.6588 51.2497 15.8451 53.6137C13.0314 55.9776 10.8405 59.0086 9.4677 62.4363C6.63927 60.6948 4.43416 58.0871 3.17292 54.9922C1.91168 51.8974 1.66005 48.4766 2.45461 45.2273C3.24917 41.978 5.0485 39.0694 7.59105 36.9245C10.1336 34.7795 13.2868 33.5099 16.5924 33.3003L17.9104 33.2703C18.8259 28.0343 21.5374 23.2915 25.5688 19.8748C29.6002 16.458 34.6938 14.5856 39.9553 14.5863V14.5863Z" fill="#F6C8A4"/>
</svg>
