<svg width="100" height="100" viewBox="0 0 100 100" fill="none" xmlns="http://www.w3.org/2000/svg">
<path d="M82.8696 30.9414C80.1589 28.2372 76.5383 26.3493 72.3357 25.4457C71.9417 25.3609 71.573 25.1852 71.2589 24.9326C70.9449 24.6801 70.6942 24.3576 70.5269 23.991C68.9815 20.6155 66.6416 17.6645 63.7074 15.3902C59.9526 12.5179 55.3863 11.0001 50.5 11.0001C44.9321 10.9824 39.5524 13.0146 35.3869 16.7092C31.4752 20.1941 28.7742 25.0077 27.5587 30.5825C27.4574 31.0544 27.2264 31.4887 26.8917 31.8365C26.557 32.1843 26.132 32.4318 25.6643 32.5513C21.6234 33.5696 19.8922 34.5782 17.7101 36.5211C14.6164 39.2754 13 43.0271 13 47.3363C13 52.2744 14.8152 56.3299 18.2484 59.0648C21.2565 61.4586 25.3653 62.7243 30.1336 62.7243H67.9569C73.3233 62.7243 78.3195 60.8719 82.0194 57.5066C85.8728 54.0071 88 49.1547 88 43.8449C88 38.755 86.222 34.2938 82.8696 30.9414V30.9414Z" fill="#C9E8E0"/>
<path d="M27.2241 80.8276C26.756 80.8273 26.2968 80.7 25.8954 80.4593C25.494 80.2185 25.1655 79.8734 24.9448 79.4606C24.7242 79.0478 24.6197 78.5829 24.6425 78.1154C24.6653 77.6479 24.8145 77.1954 25.0743 76.806L30.2467 69.0474C30.4352 68.7649 30.6775 68.5222 30.9597 68.3334C31.242 68.1445 31.5587 68.013 31.8918 67.9465C32.2248 67.88 32.5677 67.8798 32.9009 67.9458C33.234 68.0119 33.5509 68.1429 33.8334 68.3313C34.116 68.5198 34.3586 68.7621 34.5475 69.0444C34.7364 69.3267 34.8678 69.6434 34.9343 69.9764C35.0008 70.3095 35.001 70.6524 34.935 70.9855C34.869 71.3187 34.738 71.6356 34.5495 71.9181L29.3771 79.6767C29.1407 80.031 28.8205 80.3214 28.4449 80.5222C28.0693 80.7229 27.6499 80.8278 27.2241 80.8276V80.8276Z" fill="#C9E8E0"/>
<path d="M34.9828 88.5862C34.5149 88.5856 34.0559 88.4581 33.6548 88.2173C33.2536 87.9764 32.9253 87.6312 32.7048 87.2185C32.4844 86.8058 32.38 86.341 32.4029 85.8736C32.4257 85.4063 32.575 84.9539 32.8347 84.5646L43.1795 69.0474C43.368 68.7649 43.6103 68.5222 43.8925 68.3334C44.1748 68.1445 44.4915 68.013 44.8246 67.9465C45.1576 67.88 45.5005 67.8798 45.8337 67.9458C46.1668 68.0119 46.4837 68.1429 46.7662 68.3313C47.0488 68.5198 47.2914 68.7621 47.4803 69.0444C47.6692 69.3267 47.8006 69.6434 47.8671 69.9764C47.9336 70.3095 47.9338 70.6524 47.8678 70.9855C47.8018 71.3187 47.6708 71.6356 47.4823 71.9181L37.1375 87.4353C36.9009 87.7898 36.5805 88.0804 36.2046 88.2812C35.8287 88.482 35.409 88.5867 34.9828 88.5862V88.5862Z" fill="#C9E8E0"/>
<path d="M53.0862 80.8276C52.6182 80.8273 52.159 80.7 51.7576 80.4593C51.3562 80.2185 51.0277 79.8734 50.807 79.4606C50.5864 79.0478 50.4819 78.5829 50.5047 78.1154C50.5275 77.6479 50.6767 77.1954 50.9365 76.806L56.1089 69.0474C56.4896 68.4768 57.0813 68.0808 57.7539 67.9465C58.4266 67.8123 59.125 67.9507 59.6956 68.3314C60.2662 68.712 60.6622 69.3038 60.7965 69.9764C60.9308 70.6491 60.7924 71.3475 60.4117 71.9181L55.2393 79.6767C55.0029 80.031 54.6827 80.3214 54.3071 80.5222C53.9315 80.723 53.5121 80.8279 53.0862 80.8276V80.8276Z" fill="#C9E8E0"/>
<path d="M60.8449 88.5862C60.3769 88.5859 59.9177 88.4586 59.5163 88.2179C59.1149 87.9772 58.7863 87.632 58.5657 87.2192C58.345 86.8064 58.2405 86.3415 58.2633 85.874C58.2861 85.4065 58.4354 84.954 58.6951 84.5647L69.04 69.0474C69.4206 68.4768 70.0124 68.0808 70.685 67.9465C71.3577 67.8123 72.0561 67.9507 72.6267 68.3314C73.1973 68.712 73.5933 69.3038 73.7276 69.9764C73.8619 70.6491 73.7234 71.3475 73.3428 71.9181L62.9979 87.4353C62.7616 87.7896 62.4414 88.08 62.0658 88.2808C61.6902 88.4816 61.2708 88.5865 60.8449 88.5862V88.5862Z" fill="#C9E8E0"/>
</svg>
