<svg width="100" height="100" viewBox="0 0 100 100" fill="none" xmlns="http://www.w3.org/2000/svg">
<path d="M50 13.5863C50.7161 13.5863 51.4028 13.8708 51.9092 14.3771C52.4155 14.8835 52.7 15.5702 52.7 16.2863V21.6863C52.7 22.4024 52.4155 23.0891 51.9092 23.5955C51.4028 24.1018 50.7161 24.3863 50 24.3863C49.2839 24.3863 48.5972 24.1018 48.0908 23.5955C47.5845 23.0891 47.3 22.4024 47.3 21.6863V16.2863C47.3 15.5702 47.5845 14.8835 48.0908 14.3771C48.5972 13.8708 49.2839 13.5863 50 13.5863ZM68 49.5863C68 54.3602 66.1036 58.9386 62.7279 62.3142C59.3523 65.6899 54.7739 67.5863 50 67.5863C45.2261 67.5863 40.6477 65.6899 37.2721 62.3142C33.8964 58.9386 32 54.3602 32 49.5863C32 44.8124 33.8964 40.234 37.2721 36.8584C40.6477 33.4827 45.2261 31.5863 50 31.5863C54.7739 31.5863 59.3523 33.4827 62.7279 36.8584C66.1036 40.234 68 44.8124 68 49.5863V49.5863ZM83.3 52.2863C84.0161 52.2863 84.7028 52.0018 85.2092 51.4955C85.7155 50.9891 86 50.3024 86 49.5863C86 48.8702 85.7155 48.1835 85.2092 47.6771C84.7028 47.1708 84.0161 46.8863 83.3 46.8863H77.9C77.1839 46.8863 76.4972 47.1708 75.9908 47.6771C75.4845 48.1835 75.2 48.8702 75.2 49.5863C75.2 50.3024 75.4845 50.9891 75.9908 51.4955C76.4972 52.0018 77.1839 52.2863 77.9 52.2863H83.3ZM50 74.7863C50.7161 74.7863 51.4028 75.0708 51.9092 75.5771C52.4155 76.0835 52.7 76.7702 52.7 77.4863V82.8863C52.7 83.6024 52.4155 84.2891 51.9092 84.7955C51.4028 85.3018 50.7161 85.5863 50 85.5863C49.2839 85.5863 48.5972 85.3018 48.0908 84.7955C47.5845 84.2891 47.3 83.6024 47.3 82.8863V77.4863C47.3 76.7702 47.5845 76.0835 48.0908 75.5771C48.5972 75.0708 49.2839 74.7863 50 74.7863ZM22.1 52.2863C22.8161 52.2863 23.5028 52.0018 24.0092 51.4955C24.5155 50.9891 24.8 50.3024 24.8 49.5863C24.8 48.8702 24.5155 48.1835 24.0092 47.6771C23.5028 47.1708 22.8161 46.8863 22.1 46.8863H16.7C15.9839 46.8863 15.2972 47.1708 14.7908 47.6771C14.2845 48.1835 14 48.8702 14 49.5863C14 50.3024 14.2845 50.9891 14.7908 51.4955C15.2972 52.0018 15.9839 52.2863 16.7 52.2863H22.1ZM21.992 21.5783C22.4983 21.0727 23.1845 20.7887 23.9 20.7887C24.6155 20.7887 25.3017 21.0727 25.808 21.5783L31.208 26.9783C31.6849 27.4901 31.9446 28.1671 31.9322 28.8666C31.9199 29.5661 31.6365 30.2335 31.1418 30.7281C30.6472 31.2228 29.9798 31.5062 29.2803 31.5185C28.5808 31.5309 27.9038 31.2712 27.392 30.7943L21.992 25.3943C21.4864 24.8881 21.2024 24.2018 21.2024 23.4863C21.2024 22.7708 21.4864 22.0846 21.992 21.5783V21.5783ZM25.808 77.5943C25.5608 77.8596 25.2627 78.0723 24.9315 78.2199C24.6003 78.3675 24.2428 78.4468 23.8803 78.4532C23.5178 78.4596 23.1576 78.3929 22.8214 78.2571C22.4853 78.1213 22.1798 77.9192 21.9235 77.6628C21.6671 77.4065 21.465 77.101 21.3292 76.7649C21.1934 76.4287 21.1267 76.0686 21.1331 75.706C21.1395 75.3435 21.2188 74.986 21.3664 74.6548C21.514 74.3236 21.7267 74.0255 21.992 73.7783L27.392 68.3783C27.6392 68.113 27.9373 67.9003 28.2685 67.7527C28.5997 67.6051 28.9572 67.5258 29.3197 67.5194C29.6822 67.513 30.0424 67.5797 30.3786 67.7155C30.7147 67.8513 31.0202 68.0534 31.2765 68.3098C31.5329 68.5662 31.735 68.8716 31.8708 69.2078C32.0066 69.544 32.0733 69.9041 32.0669 70.2666C32.0605 70.6291 31.9812 70.9866 31.8336 71.3178C31.686 71.649 31.4733 71.9471 31.208 72.1943L25.808 77.5943ZM78.008 21.5783C77.5017 21.0727 76.8155 20.7887 76.1 20.7887C75.3845 20.7887 74.6982 21.0727 74.192 21.5783L68.792 26.9783C68.3151 27.4901 68.0554 28.1671 68.0678 28.8666C68.0801 29.5661 68.3635 30.2335 68.8582 30.7281C69.3528 31.2228 70.0202 31.5062 70.7197 31.5185C71.4192 31.5309 72.0962 31.2712 72.608 30.7943L78.008 25.3943C78.5136 24.8881 78.7976 24.2018 78.7976 23.4863C78.7976 22.7708 78.5136 22.0846 78.008 21.5783V21.5783ZM74.192 77.5943C74.4392 77.8596 74.7373 78.0723 75.0685 78.2199C75.3997 78.3675 75.7572 78.4468 76.1197 78.4532C76.4822 78.4596 76.8423 78.3929 77.1785 78.2571C77.5147 78.1213 77.8201 77.9192 78.0765 77.6628C78.3329 77.4065 78.535 77.101 78.6708 76.7649C78.8066 76.4287 78.8733 76.0686 78.8669 75.706C78.8605 75.3435 78.7812 74.986 78.6336 74.6548C78.486 74.3236 78.2733 74.0255 78.008 73.7783L72.608 68.3783C72.3608 68.113 72.0627 67.9003 71.7315 67.7527C71.4003 67.6051 71.0428 67.5258 70.6803 67.5194C70.3177 67.513 69.9576 67.5797 69.6215 67.7155C69.2853 67.8513 68.9798 68.0534 68.7235 68.3098C68.4671 68.5662 68.265 68.8716 68.1292 69.2078C67.9934 69.544 67.9267 69.9041 67.9331 70.2666C67.9395 70.6291 68.0188 70.9866 68.1664 71.3178C68.314 71.649 68.5267 71.9471 68.792 72.1943L74.192 77.5943Z" fill="#EFAA82"/>
</svg>
